<svg width="0" height="0" class="hidden">
  <symbol xmlns="http://www.w3.org/2000/svg" viewBox="0 0 12 7" id="arrov-down" fill="none">
    <path d="M1 6l5-4 5 4" stroke="#C7CCDC" stroke-width="2"></path>
  </symbol>
  <symbol   xmlns="http://www.w3.org/2000/svg" viewBox="0 0 20 20" id="calendar">
    <path d="M17.475 2.067h-1.312v-.321a.586.586 0 10-1.171 0v.32h-1.617v-.32a.586.586 0 00-1.172 0v.32h-1.617v-.32a.586.586 0 10-1.172 0v.32H7.797v-.32a.586.586 0 00-1.172 0v.32H5.008v-.32a.586.586 0 00-1.171 0v.32H2.525A2.527 2.527 0 000 4.592v11.724a2.527 2.527 0 002.525 2.525h14.95A2.527 2.527 0 0020 16.316V4.59a2.527 2.527 0 00-2.525-2.524zm1.353 14.248c0 .746-.607 1.353-1.353 1.353H2.525a1.354 1.354 0 01-1.353-1.352V6.732h17.656v9.584zm0-10.755H1.172v-.969c0-.745.607-1.352 1.353-1.352h1.312v.226a.586.586 0 001.171 0V3.24h1.617v.226a.586.586 0 001.172 0V3.24h1.617v.226a.586.586 0 001.172 0V3.24h1.617v.226a.586.586 0 001.172 0V3.24h1.617v.226a.586.586 0 101.171 0V3.24h1.312c.746 0 1.353.607 1.353 1.352v.97z"></path>
    <path d="M6.532 7.982H4.22a.586.586 0 00-.586.586v2.392c0 .323.262.586.586.586h2.312a.586.586 0 00.586-.586V8.568a.586.586 0 00-.586-.586zm-.586 2.392h-1.14v-1.22h1.14v1.22zm5.21-2.392H8.844a.586.586 0 00-.586.586v2.392c0 .323.262.586.586.586h2.312a.586.586 0 00.586-.586V8.568a.586.586 0 00-.586-.586zm-.586 2.392H9.43v-1.22h1.14v1.22zm5.21-2.392h-2.312a.586.586 0 00-.586.586v2.392c0 .323.263.586.586.586h2.312a.586.586 0 00.586-.586V8.568a.586.586 0 00-.586-.586zm-.586 2.392h-1.14v-1.22h1.14v1.22zm-8.662 2.152H4.22a.586.586 0 00-.586.586v2.392c0 .323.262.586.586.586h2.312a.586.586 0 00.586-.586v-2.392a.586.586 0 00-.586-.586zm-.586 2.392h-1.14v-1.22h1.14v1.22zm5.21-2.392H8.844a.586.586 0 00-.586.586v2.392c0 .323.262.586.586.586h2.312a.586.586 0 00.586-.586v-2.392a.586.586 0 00-.586-.586zm-.586 2.392H9.43v-1.22h1.14v1.22zm5.21-2.392h-2.312a.586.586 0 00-.586.586v2.392c0 .323.263.586.586.586h2.312a.586.586 0 00.586-.586v-2.392a.586.586 0 00-.586-.586zm-.586 2.392h-1.14v-1.22h1.14v1.22z"></path>
  </symbol>
  <symbol   xmlns="http://www.w3.org/2000/svg" viewBox="0 0 56 56" id="car">
    <path d="M53.858 22.436l-1.22-1.293-4.284-11.546a5.024 5.024 0 00-4.679-3.255H13.08A5.007 5.007 0 008.4 9.597L4.176 21l-1.759 1.627A6.875 6.875 0 000 27.857V44.68a5.002 5.002 0 005.002 4.978H8.16a5.002 5.002 0 005.001-4.978v-2.44h29.676v2.44a5.002 5.002 0 005.001 4.978H51a5.002 5.002 0 005-4.978V27.414a6.939 6.939 0 00-2.142-4.978zM10.65 10.41a2.588 2.588 0 012.429-1.675h30.608c1.077 0 2.046.67 2.43 1.675l3.733 10.052h-2.788a8.196 8.196 0 00-9.322-6.917 8.2 8.2 0 00-6.916 6.917H6.916L10.65 10.41zm33.97 10.052H33.242a5.82 5.82 0 016.892-4.5 5.827 5.827 0 014.487 4.5zM10.77 44.68a2.602 2.602 0 01-2.61 2.585H5.003a2.602 2.602 0 01-2.609-2.585v-3.135c.718.467 1.663.694 2.609.694h5.767v2.441zm42.837 0a2.602 2.602 0 01-2.609 2.585H47.84a2.61 2.61 0 01-2.608-2.585v-2.44h5.767c.946 0 1.89-.228 2.609-.695v3.135zm-2.609-4.834H5.002a2.582 2.582 0 01-2.609-2.56v-9.43a4.49 4.49 0 011.592-3.422l.047-.048 1.628-1.531h45.314l1.15 1.232c.011.024.047.036.059.06a4.51 4.51 0 011.412 3.267v9.871h.012a2.59 2.59 0 01-2.609 2.561z"></path>
    <path d="M15.795 27.641H6.82a1.2 1.2 0 00-1.196 1.197v6.222a1.2 1.2 0 001.196 1.197h8.975a1.2 1.2 0 001.196-1.197v-6.222a1.2 1.2 0 00-1.196-1.197zm-1.197 6.222h-6.58v-3.829h6.58v3.83zm34.582-6.222h-8.975a1.2 1.2 0 00-1.197 1.197v6.222a1.2 1.2 0 001.197 1.197h8.974a1.2 1.2 0 001.197-1.197v-6.222a1.2 1.2 0 00-1.197-1.197zm-1.197 6.222h-6.581v-3.829h6.58v3.83zM33.78 32.666H22.22a1.2 1.2 0 00-1.196 1.197 1.2 1.2 0 001.197 1.197H33.78a1.2 1.2 0 001.196-1.197 1.2 1.2 0 00-1.196-1.197zm0-3.709H22.22a1.2 1.2 0 00-1.196 1.197 1.2 1.2 0 001.197 1.196H33.78a1.2 1.2 0 001.196-1.196 1.2 1.2 0 00-1.196-1.197z"></path>
  </symbol>
  <symbol   xmlns="http://www.w3.org/2000/svg" viewBox="0 0 14 14" id="chart">
    <path d="M0 4.2h3V14H0V4.2zM5.6 0h2.8v14H5.6V0zm5.6 8H14v6h-2.8V8z" ></path>
  </symbol>
  <symbol   xmlns="http://www.w3.org/2000/svg" viewBox="0 0 56 56" id="clay">
    <g clip-path="url(#clip0)" >
      <path d="M54.285 23.651h-3.338c-.618 0-1.163.318-1.482.798-2.552-.266-2.892-.675-3.167-1.009a5.249 5.249 0 00-1.323-1.143l-7.67-4.658c-1.561-3.628-4.174-5.897-6.113-7.168a2.672 2.672 0 01-1.205-2.244c0-.536.158-1.055.457-1.5l1.907-2.839c.38-.565.511-1.243.37-1.91A2.498 2.498 0 0030.28 0h-9.061a2.495 2.495 0 00-2.072 3.888l1.907 2.839c.3.445.457.964.457 1.5 0 .91-.45 1.749-1.206 2.244-2.873 1.884-9.293 7.437-6.866 18.29 1.354 6.054 2.4 10.32 3.029 12.374H2.94A2.379 2.379 0 00.621 43.02L.16 45.239a2.363 2.363 0 00.48 1.978 2.36 2.36 0 001.838.874h46.54a2.36 2.36 0 001.838-.874 2.36 2.36 0 00.481-1.978l-.462-2.22a2.379 2.379 0 00-2.319-1.884H35.03c.188-.614.415-1.431.678-2.443h.89a26.1 26.1 0 007.698-1.16l5.098-.642a1.78 1.78 0 001.553.914h3.338a1.78 1.78 0 001.779-1.779V25.43c0-.98-.798-1.779-1.779-1.779zM20.381 2.32a.854.854 0 01.837-.678h9.061a.853.853 0 01.837.678.851.851 0 01-.127.654l-.943 1.405H21.45l-.944-1.405a.847.847 0 01-.126-.654zm.823 9.524a4.308 4.308 0 001.947-3.616 4.3 4.3 0 00-.608-2.208h6.411a4.31 4.31 0 00-.608 2.208 4.31 4.31 0 001.947 3.616c.503.33 1.055.733 1.62 1.217H19.589a15.763 15.763 0 011.616-1.217zm28.065 31.512l.462 2.219a.717.717 0 01-.148.608.717.717 0 01-.565.268H2.478a.718.718 0 01-.564-.269.717.717 0 01-.148-.607l.462-2.22a.73.73 0 01.713-.578h45.615c.343 0 .642.243.713.579zm-15.96-2.22h-15.12c-.338-1.007-1.196-3.999-3.15-12.732-.824-3.682-.627-7.016.582-9.933h3.021a.82.82 0 100-1.64h-2.208c.463-.799.978-1.506 1.513-2.129h15.609c.536.625 1.05 1.332 1.51 2.128H21.928a.82.82 0 100 1.64h10.87a2.612 2.612 0 00-.117 1.619 2.614 2.614 0 001.191 1.622l1.41.857h-9.117c-1.448 0-2.622 1.113-2.672 2.535-.014.379.052.747.19 1.086h-.842a2.61 2.61 0 00-1.893.804 2.623 2.623 0 001.078 4.321 2.634 2.634 0 002.377 3.758h1.242a2.634 2.634 0 002.437 3.621h5.93c-.345 1.305-.567 2.036-.704 2.443zm10.71-5.221a.833.833 0 00-.141.03 24.454 24.454 0 01-7.28 1.108h-8.515a.991.991 0 010-1.981h5.377a.82.82 0 000-1.64h-9.057a.992.992 0 010-1.981h9.057a.82.82 0 100-1.641H22.884c-.551 0-1.014-.428-1.033-.954a.987.987 0 01.99-1.027H33.46a.82.82 0 000-1.64h-7.338a.983.983 0 01-.713-.303.986.986 0 01-.277-.725c.019-.525.482-.953 1.033-.953h11.307c.466 0 .864-.302.99-.75a1.018 1.018 0 00-.456-1.156l-3.283-1.994a.983.983 0 01-.448-.611.992.992 0 011.474-1.084l8.375 5.087c.345.21.651.475.91.787.67.81 1.532 1.297 4.134 1.581v9.197l-5.149.65zm10.404.111a.138.138 0 01-.138.138h-3.338a.139.139 0 01-.138-.138V25.43c0-.076.062-.138.138-.138h3.338c.076 0 .138.062.138.138v10.595zM39.334 53.354l-4.272-3.438a.82.82 0 00-1.029 1.279l3.935 3.164H13.529l3.942-3.17a.82.82 0 10-1.028-1.279l-4.28 3.443a1.472 1.472 0 00-.472 1.654c.213.603.764.993 1.404.993h25.307c.64 0 1.19-.39 1.403-.993a1.47 1.47 0 00-.47-1.653z"></path>
    </g>
    <defs>
      <clipPath id="clip0">
        <path  d="M0 0h56v56H0z"></path>
      </clipPath>
    </defs>
  </symbol>
  <symbol   xmlns="http://www.w3.org/2000/svg" viewBox="0 0 56 56" id="cocktail">
    <path d="M13.535 4.725a.831.831 0 00-.83.83v.352a.831.831 0 001.661 0v-.351a.831.831 0 00-.83-.831zM11.12 7.492h-.352a.831.831 0 000 1.662h.351a.831.831 0 100-1.662zm1.294-1.465l-.248-.249a.83.83 0 00-1.175 1.176l.248.248a.828.828 0 001.175 0 .83.83 0 000-1.175zm0 3.417a.83.83 0 00-1.175 0l-.248.248a.83.83 0 101.175 1.175l.248-.248a.83.83 0 000-1.175z"></path>
    <path d="M49.797 6.853h-28.07a8.3 8.3 0 00-2.547-4.645A8.293 8.293 0 0013.535 0C8.946 0 5.212 3.734 5.212 8.323c0 4.59 3.734 8.323 8.323 8.323.843 0 1.67-.128 2.47-.377a10.465 10.465 0 004.555 2.52 2.99 2.99 0 012.19 2.38l1.057 6.118a7.995 7.995 0 003.386 5.276c1.373.94 2.193 2.475 2.193 4.104v12.469a2.235 2.235 0 00-1.038 1.957c-2.076.424-3.786.815-5.084 1.161-.884.237-1.552.445-2.04.638-.454.179-1.301.512-1.301 1.287 0 1.04 1.353 1.218 2.44 1.361.934.123 2.228.225 3.846.304 2.734.134 5.503.156 5.53.156h.014c.028 0 2.797-.023 5.53-.156 1.619-.079 2.913-.181 3.847-.304 1.087-.143 2.44-.32 2.44-1.361 0-.823-.76-1.248-3.532-1.975-1.68-.44-3.773-.886-5.276-1.19-.002-.6-.24-1.16-.655-1.572V36.666c0-1.628.82-3.162 2.192-4.103a7.996 7.996 0 003.387-5.276l1.056-6.118a2.99 2.99 0 012.19-2.38 10.503 10.503 0 007.553-7.666c.004-.014.008-.028.01-.042.191-.793.294-1.617.294-2.46v-.776a.992.992 0 00-.991-.992zm-36.262 8.13a6.669 6.669 0 01-6.66-6.66 6.669 6.669 0 016.66-6.661c1.68 0 3.284.627 4.517 1.766a6.645 6.645 0 011.98 3.425h-.852a5.845 5.845 0 00-5.645-4.365 5.841 5.841 0 00-5.834 5.835 5.841 5.841 0 006.553 5.788c.16.26.33.513.511.758a6.653 6.653 0 01-1.23.115zM16.08 5.78a.831.831 0 00-1.175 0l-.249.248a.83.83 0 00-.208.826h-.753a.992.992 0 00-.99.992v.776c0 .843.102 1.666.292 2.46l.01.045c.116.468.26.925.436 1.367a4.177 4.177 0 01-4.08-4.17 4.177 4.177 0 014.172-4.173 4.182 4.182 0 013.906 2.703h-1.277a.83.83 0 00-.084-1.074zm18.23 46.84c2.92.588 4.755 1.033 5.903 1.355-2.1.206-5.467.341-8.467.364-3-.023-6.366-.158-8.466-.364 1.098-.308 2.823-.729 5.526-1.28a1.53 1.53 0 001.204-1.627.571.571 0 01.421-.596.83.83 0 00.617-.803V36.666a6.557 6.557 0 00-.781-3.098 23.273 23.273 0 002.958 0 6.56 6.56 0 00-.78 3.099v13.17c0 .284.145.55.386.702a.569.569 0 01.267.52 1.506 1.506 0 001.212 1.56zm14.816-44c0 .5-.042.99-.123 1.47H23.99a.831.831 0 000 1.663h24.563a8.836 8.836 0 01-6.038 5.427 4.654 4.654 0 00-3.41 3.706l-1.056 6.117a6.346 6.346 0 01-2.689 4.188c-.223.153-.884.51-1.005.564-.658.259-4.553.259-5.215 0a11.99 11.99 0 01-1.006-.564 6.346 6.346 0 01-2.689-4.188l-1.056-6.117a4.655 4.655 0 00-3.41-3.706 8.808 8.808 0 01-4.104-2.389 8.861 8.861 0 01-1.934-3.039h5.183a.831.831 0 000-1.661H14.49a8.87 8.87 0 01-.123-1.471v-.106h34.76v.106z"></path>
  </symbol>
  <symbol   xmlns="http://www.w3.org/2000/svg" viewBox="0 0 56 56" id="couch">
    <path d="M53.225 20.916h-1.113V16.78a4.438 4.438 0 00-4.433-4.433H31.613A4.43 4.43 0 0028 14.216a4.43 4.43 0 00-3.613-1.868H14.294a.82.82 0 100 1.64h10.093a2.796 2.796 0 012.793 2.793v8.204c-.017-.017-.036-.032-.053-.048a5.364 5.364 0 00-3.62-1.43H9.842a2.813 2.813 0 00-1.86-2.437 2.725 2.725 0 00-.91-.154H5.53V16.78a2.796 2.796 0 012.792-2.793h2.692a.82.82 0 100-1.64H8.32a4.438 4.438 0 00-4.433 4.433v4.135H2.775A2.779 2.779 0 000 23.69v8.565a5.786 5.786 0 005.78 5.78h.412l-.899 2.418c-.566 1.524.6 3.198 2.223 3.198h1.32c.739 0 1.446-.352 1.891-.94l3.537-4.676h27.473l3.536 4.675a2.38 2.38 0 001.891.941h1.32c1.625 0 2.79-1.674 2.223-3.198l-.9-2.418h.413a5.786 5.786 0 005.78-5.78V23.69a2.779 2.779 0 00-2.775-2.775zM28.82 16.78a2.796 2.796 0 012.793-2.793h16.066a2.796 2.796 0 012.792 2.793v4.135h-1.544c-1.09 0-2.137.7-2.56 1.704-.119.281-.19.583-.21.888H32.495a5.38 5.38 0 00-3.674 1.477V16.78zM9.85 25.148h13.657a3.678 3.678 0 013.674 3.674v1.166H9.849v-4.84zm-.43 16.573a.735.735 0 01-.583.29h-1.32a.737.737 0 01-.685-.985l1.111-2.99h4.264L9.42 41.721zm39.065.29h-1.32a.735.735 0 01-.583-.29l-2.788-3.685h4.265l1.111 2.99a.738.738 0 01-.685.985zm1.736-5.616H5.78a4.144 4.144 0 01-4.14-4.139v-8.565c0-.626.51-1.135 1.135-1.135h4.298c.626 0 1.135.51 1.135 1.135v7.117c0 .453.367.82.82.82h30.13a.82.82 0 100-1.64H28.82V28.82a3.677 3.677 0 013.673-3.673h13.658v4.84H42.44a.82.82 0 000 1.64h4.532a.82.82 0 00.82-.82V23.69c0-.626.51-1.135 1.135-1.135h4.297c.626 0 1.135.51 1.135 1.135v8.565a4.144 4.144 0 01-4.139 4.14z"></path>
  </symbol>
  <symbol   xmlns="http://www.w3.org/2000/svg" viewBox="0 0 18 18" id="delete-icon">
    <g clip-path="url(#clip0)" >
      <path d="M16.308 4.023l-.397-1.191a1.108 1.108 0 00-1.053-.759h-3.34V.986A.987.987 0 0010.532 0H7.474a.987.987 0 00-.986.986v1.087h-3.34a1.11 1.11 0 00-1.053.759l-.397 1.191a.894.894 0 00.846 1.174h.415l.915 11.307c.068.839.78 1.496 1.62 1.496h7.203c.84 0 1.553-.657 1.62-1.496l.915-11.307h.23a.894.894 0 00.846-1.174zM7.543 1.055h2.92v1.018h-2.92V1.055zm5.724 15.364a.575.575 0 01-.57.526H5.495a.575.575 0 01-.57-.526L4.017 5.197h10.157l-.907 11.222zM2.77 4.143l.326-.977a.055.055 0 01.052-.038h11.71c.024 0 .045.015.052.038l.326.977H2.77z"></path>
      <path d="M11.585 16.381l.027.001a.527.527 0 00.527-.5l.495-9.506a.527.527 0 00-1.053-.055l-.496 9.506a.527.527 0 00.5.554zm-5.694-.498a.527.527 0 001.053-.057L6.425 6.32a.527.527 0 10-1.053.057l.519 9.506zm3.118.499a.527.527 0 00.527-.527V6.348a.527.527 0 10-1.054 0v9.507c0 .29.236.527.527.527z"></path>
    </g>
    <defs>
      <clipPath id="clip0">
        <path  d="M0 0h18v18H0z"></path>
      </clipPath>
    </defs>
  </symbol>
  <symbol   xmlns="http://www.w3.org/2000/svg" viewBox="0 0 56 56" id="hands-holding-heart">
    <g clip-path="url(#clip0)" >
      <path d="M55.794 31.2l-.997-14.534a3.499 3.499 0 00-1.205-2.42 3.498 3.498 0 00-2.565-.852 3.529 3.529 0 00-3.266 3.548l.118 11.848-5.133 6.574a3.3 3.3 0 01-3.412 1.154l5.585-7.252a3.128 3.128 0 00-.37-4.198 3.082 3.082 0 00-2.311-.802 3.084 3.084 0 00-2.177 1.116l-8.436 10.16a9.225 9.225 0 00-2.125 5.975l.131 13.492a.981.981 0 00.98.972l14.047.02h.002a.981.981 0 00.977-1.067l-.573-6.604 9.325-12.394a7.073 7.073 0 001.405-4.736zm-2.973 3.556L43.27 47.45a.981.981 0 00-.194.675l.513 5.911-12.005-.016-.121-12.522a7.258 7.258 0 011.672-4.703l8.436-10.16c.202-.243.488-.39.803-.411.316-.023.619.083.853.296.439.399.499 1.08.137 1.549l-6.337 8.23a.98.98 0 00.235 1.416c2.268 1.504 5.357 1.002 7.031-1.143l5.344-6.844a.981.981 0 00.208-.614l-.121-12.192a1.562 1.562 0 011.446-1.57c.419-.03.82.103 1.136.377.315.274.505.654.533 1.071l.997 14.534a5.111 5.111 0 01-1.015 3.422zm-36.882-9.375a3.083 3.083 0 00-2.177-1.116 3.083 3.083 0 00-2.31.803 3.128 3.128 0 00-.37 4.198l5.584 7.252a3.301 3.301 0 01-3.412-1.154L8.12 28.79l.118-11.848a3.529 3.529 0 00-3.266-3.548 3.502 3.502 0 00-2.565.852 3.5 3.5 0 00-1.205 2.42L.206 31.2a7.074 7.074 0 001.404 4.736l9.326 12.393-.573 6.605A.98.98 0 0011.34 56h.001l14.048-.02a.981.981 0 00.98-.971l.13-13.492a9.226 9.226 0 00-2.124-5.976l-8.436-10.16zm8.477 28.638l-12.005.017.513-5.911a.98.98 0 00-.194-.675L3.18 34.756a5.111 5.111 0 01-1.015-3.422L3.161 16.8a1.55 1.55 0 01.533-1.071 1.548 1.548 0 011.136-.378c.819.06 1.454.75 1.446 1.571l-.121 12.192a.98.98 0 00.208.614l5.343 6.844c1.676 2.145 4.764 2.647 7.032 1.143a.982.982 0 00.235-1.417l-6.337-8.23a1.154 1.154 0 01.137-1.548 1.143 1.143 0 011.656.115l8.436 10.16a7.26 7.26 0 011.672 4.703l-.121 12.521zm22.809-42.976a10.97 10.97 0 00-3.235-7.809A10.97 10.97 0 0036.182 0c-2.95 0-5.723 1.149-7.809 3.234L28 3.608l-.373-.374A10.97 10.97 0 0019.818 0a10.97 10.97 0 00-7.808 3.234c-4.306 4.306-4.306 11.312 0 15.617l15.296 15.297a.98.98 0 001.388 0L43.99 18.85a10.97 10.97 0 003.235-7.808zM28 32.066L13.398 17.463c-3.54-3.54-3.54-9.3 0-12.84a9.02 9.02 0 016.42-2.66 9.02 9.02 0 016.42 2.66l1.068 1.066a.98.98 0 001.388 0l1.067-1.067a9.02 9.02 0 016.42-2.66 9.02 9.02 0 016.421 2.66 9.02 9.02 0 012.66 6.42 9.021 9.021 0 01-2.66 6.422L28 32.066z"></path>
    </g>
    <defs>
      <clipPath id="clip0">
        <path  d="M0 0h56v56H0z"></path>
      </clipPath>
    </defs>
  </symbol>
  <symbol   xmlns="http://www.w3.org/2000/svg" viewBox="0 0 56 56" id="invoice">
    <path d="M53.688 0H2.312C1.523 0 .878.645.878 1.434c0 .788.645 1.434 1.434 1.434h3.094V54.53c0 .526.287 1.016.753 1.267.466.25 1.028.227 1.47-.072l6.225-4.146 6.248 4.158a1.426 1.426 0 001.59 0l6.224-4.146 6.25 4.158a1.426 1.426 0 001.588 0l6.225-4.146 6.249 4.158c.239.155.514.239.788.239.227 0 .466-.06.681-.167a1.44 1.44 0 00.753-1.267l-.024-51.663h3.262c.789 0 1.434-.645 1.434-1.433 0-.789-.645-1.47-1.434-1.47zm-6.093 51.854l-4.815-3.202a1.426 1.426 0 00-1.59 0l-6.224 4.158-6.25-4.158a1.426 1.426 0 00-1.588 0l-6.225 4.146-6.249-4.146a1.425 1.425 0 00-1.589 0l-4.791 3.19V2.856h39.309l.012 48.998z"></path>
    <path d="M14.87 22.892h15.018c.788 0 1.433-.645 1.433-1.433 0-.789-.645-1.434-1.433-1.434H14.869c-.788 0-1.434.645-1.434 1.434a1.43 1.43 0 001.434 1.433zm0 4.983h11.254c.789 0 1.434-.645 1.434-1.434 0-.788-.645-1.434-1.434-1.434H14.87c-.788 0-1.434.645-1.434 1.434a1.43 1.43 0 001.434 1.434zm22.521-4.983h3.752c.788 0 1.434-.645 1.434-1.433 0-.789-.646-1.434-1.434-1.434H37.39c-.788 0-1.434.645-1.434 1.434a1.43 1.43 0 001.434 1.433zm0 4.983h3.752c.788 0 1.434-.645 1.434-1.434a1.44 1.44 0 00-1.434-1.434H37.39c-.788 0-1.434.645-1.434 1.434a1.43 1.43 0 001.434 1.434zM14.87 11.386h15.018c.788 0 1.433-.645 1.433-1.433 0-.789-.645-1.434-1.433-1.434H14.869c-.788 0-1.434.645-1.434 1.434a1.43 1.43 0 001.434 1.434zm0 4.971h11.254c.789 0 1.434-.645 1.434-1.434 0-.789-.645-1.434-1.434-1.434H14.87c-.788 0-1.434.645-1.434 1.434a1.43 1.43 0 001.434 1.434zm22.521-4.971h3.752c.788 0 1.434-.645 1.434-1.433 0-.789-.646-1.434-1.434-1.434H37.39c-.788 0-1.434.645-1.434 1.434a1.43 1.43 0 001.434 1.434zm0 4.971h3.752c.788 0 1.434-.645 1.434-1.434 0-.789-.646-1.434-1.434-1.434H37.39c-.788 0-1.434.645-1.434 1.434a1.43 1.43 0 001.434 1.434zM14.87 34.541h15.018c.788 0 1.433-.645 1.433-1.433 0-.789-.645-1.434-1.433-1.434H14.869c-.788 0-1.434.645-1.434 1.434a1.43 1.43 0 001.434 1.433zm0 4.971h11.254c.789 0 1.434-.646 1.434-1.434 0-.789-.645-1.434-1.434-1.434H14.87c-.788 0-1.434.645-1.434 1.434a1.43 1.43 0 001.434 1.434zm22.521-4.971h3.752c.788 0 1.434-.645 1.434-1.433 0-.789-.646-1.434-1.434-1.434H37.39c-.788 0-1.434.645-1.434 1.434a1.43 1.43 0 001.434 1.433zm0 4.971h3.752a1.44 1.44 0 001.434-1.434c0-.789-.646-1.434-1.434-1.434H37.39c-.788 0-1.434.645-1.434 1.434a1.43 1.43 0 001.434 1.434z"></path>
  </symbol>
  <symbol   xmlns="http://www.w3.org/2000/svg" viewBox="0 0 56 56" id="kite">
    <g clip-path="url(#clip0)">
      <path d="M52.992 27.517l-2.25-2.25V3.869l1.89-1.89a.948.948 0 10-1.341-1.34L49.4 2.526H28L25.752.277a.949.949 0 10-1.341 1.342l2.152 2.153-6.676 28.294a2.694 2.694 0 001.57 4.327l4.257.865a2.754 2.754 0 011.883 1.4c.39.726.436 1.58.126 2.343a2.758 2.758 0 01-3.13 1.664L8.64 39.285a4.905 4.905 0 00-5.634 3.172 4.89 4.89 0 00.376 4.056 4.891 4.891 0 003.316 2.367l.066.013a4.214 4.214 0 012.929 2.157 4.215 4.215 0 01.172 3.634.949.949 0 001.75.734 6.104 6.104 0 00-.25-5.263 6.104 6.104 0 00-4.241-3.125l-.066-.013a2.995 2.995 0 01-2.262-3.933 3.004 3.004 0 013.45-1.943l15.953 3.38a4.653 4.653 0 005.282-2.807 4.644 4.644 0 00-.213-3.953 4.644 4.644 0 00-3.177-2.362l-4.258-.864a.783.783 0 01-.607-.554.793.793 0 01.063-.619l28.207-6.656 2.154 2.153a.947.947 0 001.341 0 .949.949 0 000-1.342zM47.504 4.424L38.7 13.226l-8.803-8.802h17.606zm-19.363.925l9.218 9.219-14.913 14.914L28.14 5.349zm-4.353 25.474L38.7 15.91l9.219 9.218-24.133 5.695zm25.057-7.453l-8.803-8.802 8.803-8.802V23.37z"></path>
    </g>
    <defs>
      <clipPath id="clip0">
        <path  d="M0 0h56v56H0z"></path>
      </clipPath>
    </defs>
  </symbol>
  <symbol   xmlns="http://www.w3.org/2000/svg" viewBox="0 0 16 16" id="logout">
    <g clip-path="url(#clip0)" >
      <path d="M10 14H2V2h8v1h2V0H0v16h12v-3h-2v1z"></path>
      <path d="M12.293 4.293l-1.414 1.414L12.172 7H7v2h5.172l-1.293 1.293 1.414 1.414L16 8l-3.707-3.707z"></path>
    </g>
    <defs>
      <clipPath id="clip0">
        <path d="M0 0h16v16H0z"></path>
      </clipPath>
    </defs>
  </symbol>
  <symbol   xmlns="http://www.w3.org/2000/svg" viewBox="0 0 56 56" id="money">
    <path d="M26.973 22.662a61.6 61.6 0 01-.58-.21v-3.53a4.785 4.785 0 011.114.627 1.094 1.094 0 001.39-1.689 6.834 6.834 0 00-2.504-1.226v-.536a1.094 1.094 0 00-2.187 0v.485a4.474 4.474 0 00-.35.088c-1.257.38-2.165 1.439-2.428 2.835-.255 1.357.187 2.71 1.127 3.447.428.337.951.645 1.65.966v4.626c-.494-.07-.866-.238-1.458-.625a1.094 1.094 0 10-1.197 1.83c1.039.68 1.771.919 2.656.995v.68a1.094 1.094 0 002.187 0v-.785c1.82-.46 2.985-2.015 3.243-3.547.331-1.97-.739-3.751-2.663-4.431zm-2.767-1.218c-.109-.07-.21-.14-.302-.212-.295-.231-.429-.774-.326-1.32.034-.183.174-.727.628-1.016v2.548zm3.273 5.287a2.264 2.264 0 01-1.086 1.571v-3.52c1.187.5 1.158 1.52 1.086 1.949z"></path>
    <path d="M51.79 23.369l-6.946-4.588V1.094C44.844.49 44.354 0 43.75 0H17.5c-.604 0-1.094.49-1.094 1.094V5.25H12.25c-.604 0-1.094.49-1.094 1.094V18.78L4.21 23.37a1.094 1.094 0 00-.491.912v30.625c0 .604.49 1.094 1.094 1.094h18.265a1.094 1.094 0 000-2.188H7.453L23.4 37.867l3.998 2.64a1.093 1.093 0 001.206 0l3.998-2.64 15.946 15.947H32.922a1.094 1.094 0 000 2.187h18.266c.603 0 1.093-.49 1.093-1.094V24.281c0-.367-.184-.71-.49-.912zm-2.587.912l-4.36 2.879v-5.757l4.36 2.878zM18.593 2.188h24.063v26.416l-3.062 2.023V6.344c0-.604-.49-1.094-1.094-1.094H18.594V2.187zm-7.437 19.215v5.757l-4.359-2.88 4.36-2.878zm-5.25 30.863V26.314l15.63 10.322-15.63 15.63zM28 38.283l-14.656-9.679V7.438h24.062V32.07L28 38.283zm22.094-11.969v25.952l-15.63-15.63 15.63-10.322z"></path>
    <path d="M28 53.813c-.288 0-.57.116-.773.32A1.097 1.097 0 0028 56c.288 0 .57-.117.773-.32a1.099 1.099 0 000-1.547 1.101 1.101 0 00-.773-.32z"></path>
  </symbol>
  <symbol   xmlns="http://www.w3.org/2000/svg" viewBox="0 0 7 12" id="period-back-arrow">
    <path d="M6 1L2 6l4 5" stroke-width="2"></path>
  </symbol>
  <symbol   xmlns="http://www.w3.org/2000/svg" viewBox="0 0 7 12" id="period-right-arrow">
    <path d="M1 1l4 5-4 5" stroke-width="2"></path>
  </symbol>
  <symbol   xmlns="http://www.w3.org/2000/svg" viewBox="0 0 63 57" id="products">
    <path d="M62.97 44.58l-.24-1.297a1.75 1.75 0 00-2.039-1.401l-4.892.899 2.215-1.482a1.747 1.747 0 00.551-2.31l-.67-1.187a1.757 1.757 0 00-1.074-.831 1.758 1.758 0 00-.679-.043 23.31 23.31 0 00.374-4.168c0-.628-.378-1.168-.917-1.408a7.077 7.077 0 00.056-5.355 1.114 1.114 0 00-.626-.628 7.021 7.021 0 00-2.951-.493 4.878 4.878 0 00-4.862-4.632 4.85 4.85 0 00-1 .104 7.605 7.605 0 00-.43-4.061 1.139 1.139 0 00-.638-.644 7.563 7.563 0 00-2.81-.54 7.535 7.535 0 00-4.046 1.17 9.126 9.126 0 00-2.172-3.477 1.556 1.556 0 00-1.109-.46c-.419 0-.813.163-1.11.46l-4.467 4.478a4.639 4.639 0 00-3.9-1.108 4.685 4.685 0 00-2.528 1.328 4.688 4.688 0 00-2.827-.396c-.21.036-.415.088-.614.15v-3.45a4.357 4.357 0 00-4.273-4.354V7.487a1.54 1.54 0 001.276-1.514V1.538A1.54 1.54 0 0015.029 0H7.526a1.54 1.54 0 00-1.538 1.538v4.435a1.54 1.54 0 001.275 1.514v1.956a4.357 4.357 0 00-4.272 4.355v26.934C1.147 42.396 0 44.718 0 47.285c0 5.05 4.433 9.16 9.881 9.16l36.937-.011a4.23 4.23 0 003.253-1.52c.786-.94 1.12-2.16.927-3.364l7.378 1.325a1.743 1.743 0 001.33-.299c.383-.273.643-.698.712-1.163l.2-1.341a1.748 1.748 0 00-1.34-1.96l-2.6-.597 4.887-.898a1.74 1.74 0 001.127-.729c.264-.384.363-.849.278-1.308zM52.42 26.713c.556 0 1.102.088 1.627.261a5.226 5.226 0 01-.441 4.244H51.12l.793-.795a.923.923 0 00-1.306-1.304l-.42.421a4.28 4.28 0 00-.992-1.704 5.16 5.16 0 013.225-1.123zm-5.204-4.623a3.03 3.03 0 013.023 3.031c0 .031-.002.062-.003.092a7.012 7.012 0 00-2.634 1.563 4.22 4.22 0 00-.372-.124 4.281 4.281 0 00-2.55-3.173 3.018 3.018 0 012.536-1.39zm-4.878-5.141a5.7 5.7 0 011.836.302 5.782 5.782 0 01-.228 4.262 4.902 4.902 0 00-1.182 1.639 4.31 4.31 0 00-2.454.95 4.886 4.886 0 00-.698-.968l2.116-2.121a.923.923 0 10-1.307-1.304l-2.313 2.318a4.825 4.825 0 00-1.416-.42 5.766 5.766 0 011.577-2.968 5.71 5.71 0 014.069-1.69zm-7.072 14.27h-.8a.922.922 0 00-1.717 0h-.94a.923.923 0 00-1.44-1.135l-.87.872a.92.92 0 00-.182.262h-1.878a7.3 7.3 0 01-1.184-3.724h14.64a7.299 7.299 0 01-1.183 3.724h-1.954a.918.918 0 00-.183-.262l-.87-.872a.923.923 0 00-1.439 1.134zm-2.146-5.57a3.03 3.03 0 012.918-2.241 3.03 3.03 0 012.917 2.24H33.12zM35.007 14.3a7.298 7.298 0 011.743 3.259 7.606 7.606 0 00-1.171 1.68.916.916 0 00-.481-.137h-1.23a.923.923 0 000 1.846h1.079a7.66 7.66 0 00-.142.773 4.829 4.829 0 00-1.044.407 4.659 4.659 0 00-2.84-2.17l-.002-.007a4.672 4.672 0 00-.37-1.182l4.458-4.47zm-16.682 8.327a2.817 2.817 0 014.337-3.194.923.923 0 001.322-.23 2.794 2.794 0 011.866-1.22 2.799 2.799 0 013.291 2.762.923.923 0 00.843.917 2.81 2.81 0 012.317 1.655 4.865 4.865 0 00-1.067 2.33h-5.263a1.57 1.57 0 00-1.45.976 6.99 6.99 0 00-3.952-1.214c-.896 0-1.774.169-2.61.502a1.114 1.114 0 00-.625.627 7.067 7.067 0 00-.43 1.64 2.793 2.793 0 01-.655-1.37 2.815 2.815 0 011.594-3.032.923.923 0 00.482-1.149zm2.75 8.338l.253.252H19.11a5.229 5.229 0 01-.169-3.7 5.172 5.172 0 011.627-.262 5.17 5.17 0 014.05 1.941c.157.708.397 1.384.707 2.021h-1.391l-1.552-1.556a.923.923 0 10-1.307 1.304zm-3.93.252h-3.29a3.035 3.035 0 011.432-2.105 4.64 4.64 0 001.683 1.395c.047.24.104.477.176.71zM7.833 1.846h6.89v3.819h-6.89v-3.82zm5.614 5.665v1.93H9.108v-1.93h4.338zm-8.61 10.03h5.992a.923.923 0 100-1.846H4.835v-1.897a2.51 2.51 0 012.503-2.51h7.878a2.51 2.51 0 012.503 2.51v1.897h-1.723a.923.923 0 100 1.845h1.723v.82a4.651 4.651 0 00-1.335 4.12l.002.01a4.663 4.663 0 00-1.89 4.947 4.896 4.896 0 00-1.23.966h-8.43V17.54zm0 12.708h7.36a4.844 4.844 0 00-.202.97h-.155c-.85 0-1.54.69-1.54 1.541 0 1.465.136 2.904.4 4.311a10.171 10.171 0 00-.814-.032c-1.116 0-2.18.177-2.994.498-1.246.492-1.59 1.19-1.666 1.674-.132.066-.261.135-.39.206V30.25zM16.52 41.586c.332.266.536.492.653.655h-.034c-.522 0-1.46-.21-2.528-.801a6.653 6.653 0 01-1.059-.719.923.923 0 00-1.193 0c-.295.25-.661.5-1.058.719-1.067.59-2.006.801-2.528.801h-.035c.118-.163.321-.39.653-.655a.923.923 0 00-.469-1.637c-.9-.106-1.47-.335-1.736-.502.334-.208 1.178-.563 2.698-.563 1.259 0 2.179.265 2.62.513.28.157.623.157.904 0 .441-.248 1.361-.513 2.62-.513 1.52 0 2.364.355 2.698.563-.266.167-.836.396-1.736.502a.923.923 0 00-.47 1.637zm-1.846 11.232l.032.171c.11.593.341 1.137.664 1.61H9.88c-4.43 0-8.035-3.28-8.035-7.314 0-2.756 1.684-5.16 4.164-6.406.285.213.64.396 1.061.544a2.186 2.186 0 00-.31.912c-.037.425.093.83.366 1.138.361.407.915.614 1.647.614.975 0 2.254-.386 3.422-1.033a8.51 8.51 0 00.76-.47c.239.164.493.322.762.47 1.168.647 2.447 1.033 3.422 1.033.732 0 1.285-.207 1.646-.614a1.5 1.5 0 00.367-1.138 2.187 2.187 0 00-.31-.912 3.97 3.97 0 001.06-.544c1.968.988 3.433 2.705 3.956 4.748l-6.527 2.48a4.22 4.22 0 00-2.657 4.711zm33.98.913a2.388 2.388 0 01-1.837.857h-.97l-.604-3.267a.923.923 0 10-1.815.336l.543 2.932-3.175.002-.41-2.21a.923.923 0 00-1.814.336l.347 1.874-7.386.003-.556-3a.923.923 0 10-1.815.335l.494 2.666-10.785.004a2.386 2.386 0 01-2.35-1.946l-.033-.171a2.375 2.375 0 011.498-2.65l3.627-1.378.27 1.458a.923.923 0 101.815-.336l-.332-1.788 5.384-2.045a.923.923 0 00-.655-1.726l-2.505.952c-.703-2.489-2.509-4.567-4.903-5.758-.075-.483-.42-1.182-1.665-1.674-.815-.322-1.878-.499-2.994-.499-.768 0-1.502.085-2.15.24v-.558a.923.923 0 00-1.492-.724 21.547 21.547 0 01-.24-2.932h30.058a.923.923 0 100-1.846h-.378c.588-1.21.92-2.567.92-4.001a1.57 1.57 0 00-1.417-1.561 2.432 2.432 0 011.683-.667 2.439 2.439 0 012.443 2.444c0 .478.366.876.842.918a2.447 2.447 0 012.194 2.017c.05.29.044.576-.006.85h-.99a.923.923 0 100 1.846h7.172a21.271 21.271 0 01-.647 4.95l-5.001 2.953a4.237 4.237 0 00-5.578-2.78L33.14 42.1a.923.923 0 00.655 1.726l1.357-.516.422 2.275a.923.923 0 101.814-.336l-.482-2.605 7.19-2.731a2.395 2.395 0 012.025.149c.62.347 1.05.945 1.178 1.64l1.867 10.08a2.36 2.36 0 01-.512 1.949zm3.292-7.224a.923.923 0 00-.04 1.807l6.872 1.576-.172 1.152-7.965-1.432-1.245-6.722 6.938-4.096.578 1.024-5.852 3.911a.923.923 0 00.68 1.675l9.192-1.688.204 1.105-9.19 1.688z"></path>
  </symbol>
  <symbol   xmlns="http://www.w3.org/2000/svg" viewBox="0 0 56 56" id="salary">
    <g clip-path="url(#clip0)" >
      <path d="M20.423 33.855a.82.82 0 00-.82-.82h-7.955a.82.82 0 00-.82.82v5.304c0 .453.367.82.82.82h7.955a.82.82 0 00.82-.82v-5.303zm-1.64 4.483h-6.315v-3.662h6.315v3.662zm21.15-.126h4.419a.82.82 0 100-1.64h-4.42a.82.82 0 100 1.64zm0-3.536h4.419a.82.82 0 100-1.64h-4.42a.82.82 0 100 1.64z"></path>
      <path d="M47.888 42.704a.82.82 0 00-.82.82v10.551a.285.285 0 01-.285.285H9.217a.285.285 0 01-.284-.285V35.922a.82.82 0 10-1.641 0v18.153c0 1.062.864 1.926 1.925 1.926h37.566a1.927 1.927 0 001.925-1.926V43.524a.82.82 0 00-.82-.82zm-1.105-14.861H33.24v-4.161c4.237-1.98 7.181-6.283 7.181-11.26C40.421 5.571 34.85 0 28 0a12.38 12.38 0 00-6.682 1.949 12.453 12.453 0 00-4.5 5.057.82.82 0 001.476.716A10.713 10.713 0 0128 1.641c5.945 0 10.78 4.836 10.78 10.78 0 5.945-4.835 10.781-10.78 10.781-5.945 0-10.78-4.836-10.78-10.78 0-.42.024-.842.071-1.255a.82.82 0 10-1.63-.189 12.6 12.6 0 00-.082 1.444c0 4.977 2.943 9.28 7.181 11.26v4.16H9.217a1.927 1.927 0 00-1.925 1.926v2.306a.82.82 0 101.64 0v-2.306c0-.157.128-.285.285-.285h10.677l7.489 8.56a.821.821 0 001.234 0l7.49-8.56h10.676c.157 0 .284.128.284.285v9.906a.82.82 0 101.64 0v-9.906a1.927 1.927 0 00-1.924-1.925zM28 36.256l-5.926-6.773h1.506a.82.82 0 00.82-.82V24.31a12.38 12.38 0 003.6.532 12.4 12.4 0 003.599-.532v4.352c0 .453.367.82.82.82h1.507L28 36.256z"></path>
      <path d="M11.648 48.045h2.21a.82.82 0 100-1.64h-2.21a.82.82 0 100 1.64zm7.955-1.641h-2.21a.82.82 0 100 1.64h2.21a.82.82 0 100-1.64zm5.745 1.641a.82.82 0 100-1.64h-2.21a.82.82 0 100 1.64h2.21zm5.745 0a.82.82 0 100-1.64h-2.21a.82.82 0 100 1.64h2.21zm-19.445 4.42h8.839a.82.82 0 100-1.64h-8.84a.82.82 0 100 1.64zm23.045-3.031c0 1.671 1.36 3.03 3.03 3.03.87 0 1.656-.37 2.21-.96a3.02 3.02 0 002.21.96c1.67 0 3.03-1.359 3.03-3.03 0-1.67-1.36-3.03-3.03-3.03a3.02 3.02 0 00-2.21.96 3.022 3.022 0 00-2.21-.96c-1.67 0-3.03 1.36-3.03 3.03zm7.45-1.39a1.39 1.39 0 010 2.779 1.39 1.39 0 01-1.39-1.389c0-.766.623-1.39 1.39-1.39zm-3.03 1.39a1.39 1.39 0 01-2.779 0c0-.766.623-1.39 1.389-1.39s1.39.624 1.39 1.39zM25.282 16.715a.82.82 0 00-.898 1.372c1.061.694 1.785.9 2.721.952v.904a.82.82 0 101.641 0v-.97c1.86-.361 2.946-1.893 3.186-3.323.309-1.837-.652-3.434-2.448-4.07-.243-.085-.49-.175-.738-.269V7.377c.626.147.999.464 1.031.492a.82.82 0 001.107-1.21c-.047-.044-.84-.758-2.138-.951V4.9a.82.82 0 10-1.64 0v.87a5.08 5.08 0 00-.382.099c-1.182.356-2.066 1.368-2.305 2.641-.22 1.16.152 2.279.969 2.92.434.34.976.652 1.717.982v4.984c-.646-.046-1.09-.203-1.823-.681zm1.119-6.576c-.333-.261-.475-.77-.37-1.325.094-.5.426-1.103 1.075-1.342v3.116a5.007 5.007 0 01-.705-.45zm2.536 2.989c1.537.543 1.443 1.86 1.377 2.25-.128.764-.662 1.575-1.568 1.893V13.06l.191.069z"></path>
    </g>
    <defs>
      <clipPath id="clip0">
        <path  d="M0 0h56v56H0z"></path>
      </clipPath>
    </defs>
  </symbol>
  <symbol   xmlns="http://www.w3.org/2000/svg" viewBox="0 0 56 56" id="tools">
    <g clip-path="url(#clip0)" >
      <path d="M37.99 16.97a1.093 1.093 0 100 2.186 1.093 1.093 0 000-2.187zM18.117 36.842a1.093 1.093 0 100 2.187 1.093 1.093 0 000-2.187z"></path>
      <path d="M54.694 6.729a1.093 1.093 0 00-1.024.295l-4.534 4.57h-2.174l-2.393-2.48V6.91l4.47-4.536a1.093 1.093 0 00-.43-1.804A10.91 10.91 0 0045.116 0c-3.562 0-6.799 1.661-8.88 4.558-1.947 2.71-2.547 6.034-1.687 9.213l-8.057 8.057L13.07 8.375v-2.64c0-.384-.202-.74-.531-.938L4.805.156A1.093 1.093 0 003.47.321L.376 3.413A1.095 1.095 0 00.211 4.75l4.64 7.733c.198.33.554.531.938.531l2.64.001 13.423 13.453-8.026 8.026c-3.18-.86-6.504-.258-9.217 1.69C1.715 38.264.055 41.5.055 45.063c0 1.194.192 2.37.57 3.492a1.093 1.093 0 001.813.421l4.534-4.57h2.186l2.49 2.49v2.187l-4.57 4.534a1.094 1.094 0 00.421 1.813c1.123.378 2.298.57 3.493.57 3.562 0 6.797-1.66 8.877-4.555 1.949-2.713 2.55-6.037 1.69-9.217l6.446-6.445 1.477 1.603-.678.678a1.094 1.094 0 001.547 1.547l.614-.614 13.854 15.049.031.032a6.561 6.561 0 009.282 0 6.573 6.573 0 000-9.281l-.035-.033-15.072-13.827.607-.607a1.093 1.093 0 10-1.547-1.547l-.673.674-1.607-1.475 6.477-6.477c.921.246 1.871.37 2.834.37 6.03 0 10.937-4.906 10.937-10.936 0-1.195-.192-2.37-.57-3.493-.121-.36-.42-.63-.79-.716zm-45.038 4.42a1.083 1.083 0 00-.774-.31H6.41L2.527 4.356 4.412 2.47l6.47 3.883v2.474c0 .29.115.567.32.772l13.744 13.775-1.547 1.547L9.656 11.149zm27.821 21.335L52.6 46.358a4.375 4.375 0 01-6.189 6.187L32.514 37.448l4.964-4.964zm-1.613-1.48l-4.834 4.833-1.477-1.604 4.704-4.704 1.607 1.475zm9.252-11.317a8.74 8.74 0 01-2.795-.456 1.096 1.096 0 00-1.123.263L19.55 41.144a1.093 1.093 0 00-.263 1.122c.91 2.7.474 5.58-1.194 7.902a8.65 8.65 0 01-7.1 3.643c-.32 0-.639-.017-.954-.05l3.474-3.448a1.09 1.09 0 00.323-.776v-3.094c0-.29-.115-.569-.32-.774l-3.131-3.131a1.094 1.094 0 00-.774-.32H6.516c-.291 0-.57.116-.776.323l-3.447 3.474a8.848 8.848 0 01-.051-.954 8.648 8.648 0 013.643-7.1c2.322-1.668 5.202-2.103 7.902-1.194.394.133.829.031 1.123-.263l21.649-21.649c.294-.294.395-.728.263-1.122-.91-2.7-.476-5.579 1.191-7.9a8.651 8.651 0 017.102-3.645c.33 0 .658.018.983.054l-3.402 3.452c-.202.205-.314.48-.314.768v3.094c0 .284.11.556.306.76l3.022 3.13c.206.215.49.335.787.335h3.094c.292 0 .571-.116.777-.324l3.446-3.473c.034.315.051.634.051.954 0 4.824-3.925 8.75-8.75 8.75z"></path>
      <path d="M34.124 20.382L20.437 34.07a1.094 1.094 0 001.547 1.547L35.671 21.93a1.093 1.093 0 10-1.547-1.547zm13.821 29.056a1.094 1.094 0 001.545-1.55l-9.86-9.827a1.094 1.094 0 00-1.544 1.55l9.86 9.827z"></path>
    </g>
    <defs>
      <clipPath id="clip0">
        <path  d="M0 0h55.891v56H0z"></path>
      </clipPath>
    </defs>
  </symbol>
 <symbol id="icon-google" viewBox="0 0 30 32">
<path fill="#2196f3" style="fill: var(--color1, #2196f3)" d="M29.741 13.862c0.132 0 0.238 0.109 0.238 0.244v2.562c0 0.959-0.087 1.896-0.254 2.806-1.29 7.064-7.368 12.403-14.652 12.352-8.174-0.058-14.715-6.821-14.697-15.192 0.018-8.356 6.638-15.124 14.801-15.124 3.999 0 7.628 1.625 10.292 4.264 0.096 0.095 0.099 0.252 0.004 0.349l-3.539 3.624c-0.091 0.093-0.238 0.096-0.332 0.005-1.672-1.63-3.934-2.631-6.426-2.631-5.144 0-9.286 4.212-9.321 9.48-0.035 5.303 4.152 9.612 9.321 9.612 4.194 0 7.742-2.838 8.912-6.74h-8.673c-0.132 0-0.238-0.109-0.238-0.244v-5.124c0-0.135 0.107-0.244 0.238-0.244l14.325 0z"></path>
<path fill="#1e88e5" style="fill: var(--color2, #1e88e5)" d="M29.741 13.862h-1.787c0.132 0 0.238 0.109 0.238 0.244v2.562c0 0.959-0.087 1.896-0.254 2.806-1.231 6.739-6.819 11.908-13.655 12.325 0.262 0.016 0.525 0.025 0.79 0.027 7.284 0.052 13.362-5.287 14.652-12.351 0.167-0.909 0.254-1.847 0.254-2.806v-2.562c0-0.135-0.107-0.244-0.238-0.244z"></path>
<path fill="#f44336" style="fill: var(--color3, #f44336)" d="M6.711 12.67l-4.495-3.326c2.522-4.671 7.382-7.834 12.962-7.834 3.999 0 7.628 1.625 10.292 4.264 0.096 0.095 0.099 0.252 0.004 0.349l-3.539 3.624c-0.091 0.093-0.238 0.096-0.331 0.005-1.672-1.63-3.935-2.631-6.426-2.631-3.754 0-6.99 2.273-8.467 5.548z"></path>
<path fill="#e53935" style="fill: var(--color4, #e53935)" d="M5.413 11.71l1.298 0.96c1.348-2.99 4.162-5.143 7.497-5.496 0.025-0.003 0.049-0.006 0.075-0.009-0.294-0.029-0.591-0.043-0.892-0.043-3.391 0-6.347 1.831-7.978 4.588z"></path>
<path fill="#e53935" style="fill: var(--color4, #e53935)" d="M23.683 5.774c0.096 0.095 0.099 0.252 0.004 0.349l-2.873 2.942c0.275 0.214 0.539 0.444 0.789 0.687 0.093 0.091 0.241 0.089 0.332-0.005l3.539-3.624c0.094-0.097 0.092-0.254-0.004-0.349-2.664-2.639-6.293-4.264-10.292-4.264-0.3 0-0.598 0.010-0.894 0.028 3.645 0.222 6.935 1.795 9.399 4.236z"></path>
<path fill="#4caf50" style="fill: var(--color5, #4caf50)" d="M26.035 26.969c-2.703 2.987-6.567 4.857-10.858 4.857-5.795 0-10.812-3.41-13.241-8.379l4.589-3.221c1.377 3.509 4.732 5.988 8.652 5.988 2.46 0 4.697-0.976 6.363-2.57l4.495 3.326z"></path>
<path fill="#43a047" style="fill: var(--color6, #43a047)" d="M6.526 20.226l-1.353 0.95c1.572 2.999 4.663 5.038 8.218 5.038 0.301 0 0.598-0.015 0.891-0.043-3.53-0.345-6.486-2.705-7.757-5.944z"></path>
<path fill="#43a047" style="fill: var(--color6, #43a047)" d="M15.178 31.826c4.29 0 8.155-1.87 10.858-4.857l-1.101-0.815c-2.538 3.235-6.345 5.381-10.648 5.644 0.295 0.018 0.592 0.028 0.891 0.028z"></path>
<path fill="#ffc107" style="fill: var(--color7, #ffc107)" d="M5.856 16.668c0 1.258 0.238 2.459 0.669 3.559l-4.589 3.221c-0.998-2.040-1.56-4.342-1.56-6.779 0-2.656 0.667-5.153 1.839-7.324l4.495 3.326c-0.549 1.216-0.855 2.57-0.855 3.998z"></path>
<path fill="#ffb300" style="fill: var(--color8, #ffb300)" d="M5.172 21.176l1.353-0.95c-0.432-1.1-0.669-2.301-0.669-3.559 0-1.427 0.306-2.782 0.855-3.998l-1.298-0.96c-0.843 1.425-1.332 3.097-1.344 4.892-0.011 1.655 0.389 3.214 1.103 4.574z"></path>
</symbol>
  <symbol   xmlns="http://www.w3.org/2000/svg" viewBox="0 0 56 56" id="ufo">
    <path d="M55.993 39.084C54.32 25.666 41.8 23.679 38.267 23.385V11.2c0-.084-.118-8.4-10.267-8.4-10.15 0-10.267 8.316-10.267 8.4v12.186C14.2 23.678 1.685 25.666.007 39.084c0 .019-.007.093-.007.116v3.733c0 .516.418.934.933.934H5.6v1.866H2.8a.933.933 0 00-.933.934c0 2.259 1.365 6.533 6.533 6.533s6.533-4.274 6.533-6.534a.933.933 0 00-.933-.933h-2.8v-1.866h14v1.866h-2.8a.933.933 0 00-.933.934c0 2.259 1.365 6.533 6.533 6.533s6.533-4.274 6.533-6.534a.933.933 0 00-.933-.933h-2.8v-1.866h14v1.866H42a.933.933 0 00-.933.934c0 2.259 1.365 6.533 6.533 6.533s6.533-4.274 6.533-6.534a.933.933 0 00-.933-.933h-2.8v-1.866h4.667a.933.933 0 00.933-.934V39.2c0-.022 0-.094-.007-.116zM19.6 11.2c0-.267.093-6.534 8.4-6.534 8.249 0 8.4 6.27 8.4 6.534v12.133h-1.867v-5.6h-1.866v5.6H19.6V11.2zm-8.773 15.81a21.66 21.66 0 017.84-1.81h18.666a21.66 21.66 0 017.84 1.81 14.523 14.523 0 018.808 11.256H2.02a14.523 14.523 0 018.808-11.256zM8.4 51.333A4.281 4.281 0 013.831 47.6h9.133A4.304 4.304 0 018.4 51.333zm.933-5.6H7.467v-1.866h1.866v1.866zM28 51.333a4.281 4.281 0 01-4.569-3.733h9.133A4.304 4.304 0 0128 51.333zm.933-5.6h-1.866v-1.866h1.866v1.866zm18.667 5.6a4.28 4.28 0 01-4.573-3.733h9.137a4.304 4.304 0 01-4.564 3.733zm.933-5.6h-1.866v-1.866h1.866v1.866zm5.6-3.733H1.867v-1.867h52.266V42z" ></path>
    <path d="M28 27.067a4.667 4.667 0 100 9.334 4.667 4.667 0 000-9.334zm0 7.467a2.8 2.8 0 110-5.6 2.8 2.8 0 010 5.6z" ></path>
    <path d="M29.867 31.733a1.867 1.867 0 11-3.734 0 1.867 1.867 0 013.734 0zM32.667 14h1.866v1.867h-1.866V14zm0-2.8v.933h1.866V11.2c0-.478-.187-4.667-6.533-4.667V8.4c4.33 0 4.667 2.146 4.667 2.8zM19.6 30.8h1.867v1.866H19.6V30.8zm-3.733 0h1.866v1.866h-1.866V30.8zm18.666 0H36.4v1.866h-1.867V30.8zm3.734 0h1.866v1.866h-1.866V30.8z" ></path>
  </symbol>
  <symbol   xmlns="http://www.w3.org/2000/svg" viewBox="0 0 20 20" id="calculator">
    <path d="M17.031 0H2.97a1.76 1.76 0 00-1.76 1.758v16.484c0 .97.788 1.758 1.758 1.758H17.03a1.76 1.76 0 001.758-1.758V1.758A1.76 1.76 0 0017.031 0zm.586 18.242a.587.587 0 01-.586.586H2.97a.587.587 0 01-.586-.586V1.758c0-.323.263-.586.586-.586h14.06c.323 0 .586.263.586.586v16.484z" ></path>
    <path d="M15.86 2.344H4.14a.586.586 0 00-.585.586v4.765c0 .324.262.586.586.586h11.718a.586.586 0 00.586-.586V2.93a.586.586 0 00-.586-.586zm-.587 4.765H4.727V3.516h10.546v3.593zM6.484 9.453H4.141a.586.586 0 00-.586.586v2.344c0 .323.262.586.586.586h2.343a.586.586 0 00.586-.586v-2.344a.586.586 0 00-.586-.586zm-.586 2.344H4.727v-1.172h1.171v1.172zm.586 2.343H4.141a.586.586 0 00-.586.587v2.343c0 .324.262.586.586.586h2.343a.586.586 0 00.586-.586v-2.343a.586.586 0 00-.586-.586zm-.586 2.344H4.727v-1.172h1.171v1.172zm5.274-7.031H8.828a.586.586 0 00-.586.586v2.344c0 .323.263.586.586.586h2.344a.586.586 0 00.586-.586v-2.344a.586.586 0 00-.586-.586zm-.586 2.344H9.414v-1.172h1.172v1.172zm.586 2.343H8.828a.586.586 0 00-.586.587v2.343c0 .324.263.586.586.586h2.344a.586.586 0 00.586-.586v-2.343a.586.586 0 00-.586-.586zm-.586 2.344H9.414v-1.172h1.172v1.172zm5.274-7.031h-2.344a.586.586 0 00-.586.586v7.031c0 .324.262.586.586.586h2.343a.586.586 0 00.586-.586v-7.03a.586.586 0 00-.586-.587zm-.587 7.031h-1.171v-5.859h1.171v5.86z"></path>
  </symbol>
  <symbol xmlns="http://www.w3.org/2000/svg" viewBox="0 0 24 24" id="back-arrow">
    <path d="M21 11H6.83l3.58-3.59L9 6l-6 6 6 6 1.41-1.41L6.83 13H21v-2z"></path>
  </symbol>
  <symbol   xmlns="http://www.w3.org/2000/svg" viewBox="0 0 56 56" id="book">
    <path d="M54.914 11.255h-3.69v-1.26a1.086 1.086 0 00-.782-1.085 30.575 30.575 0 00-7.826-.999c-4.342 0-10.258.977-14.632 5.428C23.642 8.845 17.682 7.91 13.35 7.91a30.575 30.575 0 00-7.826.999c-.479.14-.801.587-.781 1.085v1.249H1.085A1.087 1.087 0 000 12.329V47a1.086 1.086 0 001.617.945c.109-.055 10.964-5.992 26.117-2.171h.261c.086.01.174.01.26 0 15.197-3.854 26.052 2.073 26.117 2.17A1.086 1.086 0 0056 47.01V12.34c0-.6-.486-1.085-1.086-1.085zM2.171 45.273V13.425h2.594V40.65a1.086 1.086 0 001.249 1.086 47.52 47.52 0 016.784-.543c3.146-.054 6.28.419 9.27 1.4a39.904 39.904 0 00-19.898 2.68zm10.627-6.241a47.76 47.76 0 00-5.905.38v-28.56a29.94 29.94 0 016.437-.716c4.06 0 9.66.934 13.546 5.32l.033 27.039c-2.258-1.477-6.665-3.463-14.111-3.463zM29.08 15.455c3.886-4.342 9.487-5.319 13.547-5.319 2.165.007 4.323.247 6.437.717v28.559a47.752 47.752 0 00-5.873-.39c-7.403 0-11.82 1.986-14.11 3.462V15.455zm24.738 29.819a39.912 39.912 0 00-19.94-2.682 28.223 28.223 0 019.313-1.4c2.286.013 4.568.19 6.828.532a1.086 1.086 0 001.248-1.085V13.425h2.595l-.044 31.848z" ></path>
  </symbol>
</svg>
<svg class="icon">
  <use xlink:href="#calendar"></use>
</svg><svg class="icon">
  <use xlink:href="#car"></use>
</svg><svg class="icon">
  <use xlink:href="#chart"></use>
</svg><svg class="icon">
  <use xlink:href="#clay"></use>
</svg><svg class="icon">
  <use xlink:href="#cocktail"></use>
</svg><svg class="icon">
  <use xlink:href="#couch"></use>
</svg><svg class="icon">
  <use xlink:href="#delete-icon"></use>
</svg><svg class="icon">
  <use xlink:href="#hands-holding-heart"></use>
</svg><svg class="icon">
  <use xlink:href="#invoice"></use>
</svg><svg class="icon">
  <use xlink:href="#kite"></use>
</svg><svg class="icon">
  <use xlink:href="#logout"></use>
</svg><svg class="icon">
  <use xlink:href="#money"></use>
</svg><svg class="icon">
  <use xlink:href="#period-back-arrow"></use>
</svg><svg class="icon">
  <use xlink:href="#period-right-arrow"></use>
</svg><svg class="icon">
  <use xlink:href="#products"></use>
</svg><svg class="icon">
  <use xlink:href="#salary"></use>
</svg><svg class="icon">
  <use xlink:href="#tools"></use>
</svg><svg class="icon">
  <use xlink:href="#ufo"></use>
</svg><svg class="icon">
  <use xlink:href="#calculator"></use>
</svg><svg class="icon">
  <use xlink:href="#back-arrow"></use>
</svg><svg class="icon">
  <use xlink:href="#book"></use>
</svg>